<svg width="18" height="18" viewBox="0 0 18 18" fill="none" xmlns="http://www.w3.org/2000/svg">
<path d="M17.5605 15.4395L13.7528 11.6318C14.5395 10.446 15 9.02625 15 7.5C15 3.3645 11.6355 0 7.5 0C3.3645 0 0 3.3645 0 7.5C0 11.6355 3.3645 15 7.5 15C9.02625 15 10.446 14.5395 11.6318 13.7528L15.4395 17.5605C16.0245 18.1462 16.9755 18.1462 17.5605 17.5605C18.1462 16.9748 18.1462 16.0252 17.5605 15.4395ZM2.25 7.5C2.25 4.605 4.605 2.25 7.5 2.25C10.395 2.25 12.75 4.605 12.75 7.5C12.75 10.395 10.395 12.75 7.5 12.75C4.605 12.75 2.25 10.395 2.25 7.5Z" fill="black" fill-opacity="0.5"/>
</svg>
